# xmcd
#
# Track frame offsets: 
#        150
#        130873
#        159029
#
# Disc length: 2425 seconds
#
# Revision: 0
# Processed by: cddbd v1.5.1PL0 Copyright (c) Steve Scherf et al.
# Submitted via: ExactAudioCopy v0.95a5
#
DISCID=17097703
DTITLE=Jandek - 0774 Shadow of Leaves
DYEAR=2004
DGENRE=Lo-fi
TTITLE0=Shadow of Leaves
TTITLE1=Find Me Again
TTITLE2=I Give You Me
EXTD=
EXTT0=
EXTT1=
EXTT2=
PLAYORDER=
